<svg version="1.1" id="图层_1" xmlns="http://www.w3.org/2000/svg" xmlns:xlink="http://www.w3.org/1999/xlink" x="0px" y="0px" viewBox="0 0 17 17" style="enable-background:new 0 0 17 17;" xml:space="preserve">
<desc>Created with Sketch.</desc>
<g id="Artboard-Copy">
	<g id="位置" transform="translate(3.000000, 1.000000)">
		<path id="Shape" style="stroke:#555555;stroke-width:0.2;" d="M5.5,14C2,14,0,13.2,0,11.9c0-0.8,1.1-1.4,2.7-1.8
			l0.4,0.7c-1.3,0.2-2.2,0.6-2.2,1.1c0,0.7,2.2,1.2,4.6,1.2s4.6-0.5,4.6-1.2c0-0.5-0.9-0.9-2.2-1.1l0.4-0.7c1.6,0.4,2.7,1,2.7,1.8
			C11,13.2,8.9,14,5.5,14z M9.2,7.6C9,7.8,6,11.3,6,11.3c-0.1,0.2-0.3,0.3-0.4,0.3c-0.1,0-0.3-0.1-0.4-0.3c0,0-3.4-3.7-3.5-3.8
			C1.7,7.4,1.6,7.3,1.5,7.2C1.1,6.5,0.8,5.6,0.8,4.7C0.8,2.1,2.9,0,5.5,0C6.8,0,8,0.5,8.9,1.4s1.4,2.1,1.4,3.3
			c0,0.9-0.3,1.8-0.8,2.6C9.4,7.5,9.2,7.6,9.2,7.6z M5.5,0.9c-1,0-2,0.4-2.7,1.1S1.6,3.7,1.6,4.8c0,0.7,0.2,1.3,0.6,1.9
			c0.1,0.2,0.5,0.6,0.5,0.6l2.9,3.2l2.7-3.2c0,0,0.1-0.2,0.3-0.4C9,6.3,9.4,5.6,9.4,4.8C9.4,2.6,7.6,0.9,5.5,0.9z M5.5,6.6
			c-0.7,0-1.3-0.3-1.6-0.9s-0.3-1.3,0-1.9s1-0.9,1.6-0.9c0.7,0,1.3,0.3,1.6,0.9c0.3,0.6,0.3,1.3,0,1.9C6.8,6.2,6.2,6.6,5.5,6.6z
			 M5.5,3.8C5.2,3.8,4.8,4,4.7,4.2s-0.2,0.7,0,1s0.5,0.5,0.8,0.5c0.5,0,0.9-0.4,0.9-0.9S6,3.8,5.5,3.8z"></path>
	</g>
</g>
</svg>