<svg version="1.1" id="图层_1" xmlns="http://www.w3.org/2000/svg" xmlns:xlink="http://www.w3.org/1999/xlink" x="0px" y="0px" viewBox="0 0 17 17" style="enable-background:new 0 0 17 17;" xml:space="preserve">
<g id="Artboard">
	<g id="Group-2" transform="translate(2.500000, 3.000000)">
		<g id="Triangle-2">
			<polygon points="9,5.5 5,8 5,3 			"></polygon>
		</g>
		<g id="Rectangle-64">
			<path d="M11.5,11h-10C0.7,11,0,10.3,0,9.5v-8C0,0.7,0.7,0,1.5,0h10C12.3,0,13,0.7,13,1.5v8
				C13,10.3,12.3,11,11.5,11z M1.5,1C1.2,1,1,1.2,1,1.5v8C1,9.8,1.2,10,1.5,10h10c0.3,0,0.5-0.2,0.5-0.5v-8C12,1.2,11.8,1,11.5,1
				H1.5z"></path>
		</g>
	</g>
</g>
</svg>