<svg version="1.1" id="图层_1" xmlns="http://www.w3.org/2000/svg" xmlns:xlink="http://www.w3.org/1999/xlink" x="0px" y="0px" viewBox="0 0 30 27" style="enable-background:new 0 0 30 27;" xml:space="preserve">
<desc>Created with Sketch.</desc>
<g id="Page-1">
	<g id="查找替换-8-16">
		<path id="Combined-Shape" d="M12.003,8.031l-2.002,1.987h2.002V8.031z M13.007,8v3.018h-3.006V19
			c2.334,0,4.259,0,5.775,0c0.26,0.399,0.607,0.788,0.928,1c-1.595-0.001-4.164-0.001-7.704,0v-9.715V9.608L11.619,7H20
			c0,2.495,0,4.61,0,6.346c-0.404-0.204-0.907-0.255-1-0.256c0-1.451,0-3.147,0-5.09H13.007z M11.477,12h5.944v1h-5.944V12z
			 M11.477,14.002L15.028,14v1l-3.551,0.002V14.002z M22.011,17.006c0,0.657-0.211,1.264-0.568,1.758l1.262,1.262l-0.688,0.688
			l-1.263-1.263c-0.493,0.353-1.096,0.561-1.748,0.561c-1.66,0-3.006-1.346-3.006-3.006C16,15.346,17.345,14,19.005,14
			S22.011,15.346,22.011,17.006z M19,19c1.105,0,2-0.895,2-2s-0.895-2-2-2c-1.105,0-2,0.895-2,2S17.895,19,19,19z"></path>
	</g>
</g>
</svg>