<svg version="1.1" id="图层_1" xmlns="http://www.w3.org/2000/svg" xmlns:xlink="http://www.w3.org/1999/xlink" x="0px" y="0px" viewBox="0 0 60 54" style="enable-background:new 0 0 60 54;" xml:space="preserve">
<g id="normal">
	<rect id="Rectangle-2" x="17" y="14" style="fill:none;stroke:#555555;stroke-width:2;" width="26" height="26"></rect>
	<path id="译" style="fill:#555555;" d="M32.34,24.44c-1.24,0.747-2.567,1.357-3.98,1.83c-1.413,0.473-2.253,0.71-2.52,0.71
		c-0.08,0-0.12-0.027-0.12-0.08s0.113-0.127,0.34-0.22c2.027-0.893,3.733-1.94,5.12-3.14c-1.213-1.093-2.1-2.387-2.66-3.88h-0.16
		c-0.267,0-0.507,0.073-0.72,0.22l-0.52-0.94c0.32,0.04,0.653,0.06,1,0.06h6c0.36-0.507,0.573-0.8,0.64-0.88
		c0.067-0.08,0.153-0.12,0.26-0.12c0.147,0,0.643,0.227,1.49,0.68c0.847,0.453,1.27,0.777,1.27,0.97s-0.14,0.317-0.42,0.37
		c-0.147,0.027-0.297,0.113-0.45,0.26s-0.487,0.523-1,1.13s-1.097,1.19-1.75,1.75c1.453,0.507,3.233,0.887,5.34,1.14
		c0.267,0.027,0.4,0.067,0.4,0.12s-0.107,0.133-0.32,0.24c-0.653,0.307-1.193,0.933-1.62,1.88c-0.093,0.213-0.213,0.32-0.36,0.32
		c-0.2,0-0.89-0.24-2.07-0.72C34.35,25.66,33.287,25.093,32.34,24.44z M32.36,22.42c0.813-0.88,1.447-1.8,1.9-2.76H29
		C29.787,20.753,30.907,21.673,32.36,22.42z M22.74,18.26c0.547,0,1.15,0.09,1.81,0.27c0.66,0.18,1.167,0.453,1.52,0.82
		c0.353,0.367,0.53,0.78,0.53,1.24s-0.143,0.837-0.43,1.13s-0.62,0.44-1,0.44s-0.677-0.107-0.89-0.32
		c-0.213-0.213-0.32-0.493-0.32-0.84c0-0.68-0.083-1.197-0.25-1.55c-0.167-0.353-0.4-0.623-0.7-0.81
		c-0.3-0.187-0.45-0.297-0.45-0.33C22.56,18.277,22.62,18.26,22.74,18.26z M31.14,28.82h-2.28c-0.267,0-0.507,0.073-0.72,0.22
		l-0.52-0.94c0.32,0.04,0.653,0.06,1,0.06h2.52v-0.7c0-0.667-0.013-1.26-0.04-1.78c0.68,0.04,1.287,0.107,1.82,0.2
		c0.533,0.093,0.843,0.167,0.93,0.22c0.087,0.053,0.13,0.13,0.13,0.23s-0.127,0.217-0.38,0.35v1.48h0.88
		c0.373-0.6,0.62-0.977,0.74-1.13c0.12-0.153,0.22-0.23,0.3-0.23c0.133,0,0.54,0.267,1.22,0.8c0.68,0.533,1.02,0.87,1.02,1.01
		c0,0.14-0.14,0.21-0.42,0.21H33.6v2.4h1.84c0.387-0.653,0.657-1.083,0.81-1.29c0.153-0.207,0.277-0.31,0.37-0.31
		c0.147,0,0.61,0.3,1.39,0.9c0.78,0.6,1.17,0.977,1.17,1.13s-0.133,0.23-0.4,0.23H33.6v1.48c0,0.44,0.013,0.907,0.04,1.4l0.02,0.68
		c0,0.093-0.017,0.16-0.05,0.2s-0.19,0.11-0.47,0.21c-0.28,0.1-0.627,0.19-1.04,0.27c-0.413,0.08-0.707,0.12-0.88,0.12
		c-0.093,0-0.14-0.1-0.14-0.3l0.04-0.78c0.013-0.533,0.02-1.133,0.02-1.8v-1.48h-2.68c-0.267,0-0.507,0.073-0.72,0.22l-0.44-0.76
		c-1.36,1.853-2.267,3.167-2.72,3.94c-0.08,0.133-0.167,0.2-0.26,0.2s-0.24-0.147-0.44-0.44c-0.2-0.293-0.477-0.683-0.83-1.17
		c-0.353-0.487-0.53-0.77-0.53-0.85s0.08-0.18,0.24-0.3c0.16-0.12,0.287-0.24,0.38-0.36c0.093-0.12,0.14-0.287,0.14-0.5v-6.68H21.7
		c-0.267,0-0.507,0.073-0.72,0.22l-0.52-0.94c0.32,0.04,0.653,0.06,1,0.06h1.6c0.267-0.467,0.45-0.76,0.55-0.88
		s0.197-0.18,0.29-0.18c0.147,0,0.583,0.213,1.31,0.64c0.727,0.427,1.09,0.737,1.09,0.93c0,0.193-0.267,0.377-0.8,0.55v6.12
		c1.093-0.747,1.803-1.227,2.13-1.44c0.327-0.213,0.51-0.32,0.55-0.32c0.04,0,0.06,0.02,0.06,0.06c0,0.093-0.273,0.487-0.82,1.18
		c0.227,0.027,0.493,0.04,0.8,0.04h2.92V28.82z"></path>
</g>
</svg>