<?xml version="1.0" standalone="no"?>
<!DOCTYPE svg PUBLIC "-//W3C//DTD SVG 1.1//EN" "http://www.w3.org/Graphics/SVG/1.1/DTD/svg11.dtd" >
<!--
2013-9-30: Created.
-->
<svg>
<metadata>
Created by iconfont
</metadata>
<defs>

<font id="iconfont" horiz-adv-x="1024" >
  <font-face
    font-family="iconfont"
    font-weight="500"
    font-stretch="normal"
    units-per-em="1024"
    ascent="896"
    descent="-128"
  />
    <missing-glyph />
    
    <glyph glyph-name="arrow" unicode="&#58883;" d="M853.333333-128L0 896h1706.666667z"  horiz-adv-x="1706" />

    
    <glyph glyph-name="blockquote" unicode="&#58884;" d="M330.638222 537.031111C373.191111 587.396741 430.648889 620.35437 493.150815 630.518519v-102.893038c-42.287407-15.890963-71.717926-39.215407-87.950222-69.973333-16.611556-31.175111-24.803556-69.290667-24.803556-114.308741v-7.585185h112.753778L493.037037 99.555556H265.557333l0.113778 241.967407c-2.578963 71.907556 20.707556 141.842963 64.967111 195.508148z m379.259259 0C752.45037 587.396741 809.908148 620.35437 872.410074 630.518519v-102.893038c-42.287407-15.890963-71.717926-39.215407-87.950222-69.973333-16.611556-31.175111-24.803556-69.290667-24.803556-114.308741v-7.585185h112.753778L872.296296 99.555556h-227.479703l0.113777 241.967407c-2.578963 71.907556 20.707556 141.842963 64.967111 195.508148z"  horiz-adv-x="1137" />

    
    <glyph glyph-name="bullet" unicode="&#58885;" d="M322.37037 592.592593h37.925926c11.377778 0 18.962963-7.585185 18.962963-18.962963V516.740741H322.37037c-11.377778 0-18.962963 7.585185-18.962963 18.962963v37.925926c0 11.377778 7.585185 18.962963 18.962963 18.962963z m0-151.703704h37.925926c11.377778 0 18.962963-7.585185 18.962963-18.962963V365.037037H322.37037c-11.377778 0-18.962963 7.585185-18.962963 18.962963v37.925926c0 11.377778 7.585185 18.962963 18.962963 18.962963z m0-151.703704h37.925926c11.377778 0 18.962963-7.585185 18.962963-18.962963V213.333333H322.37037c-11.377778 0-18.962963 7.585185-18.962963 18.962963v37.925926c0 11.377778 7.585185 18.962963 18.962963 18.962963zM455.111111 554.666667h341.333333v-37.925926h-341.333333V554.666667z m0-151.703704h341.333333v-37.925926h-341.333333v37.925926z m0-151.703704h341.333333v-37.925926h-341.333333v37.925926z"  horiz-adv-x="1137" />

    
    <glyph glyph-name="background" unicode="&#58886;" d="M286.72 76.8h573.44v-122.88H286.72zM484.02432 651.22304l-80.73216-210.3296 45.58848-17.48992-33.71008-87.8592 48.70144-18.67776L403.12832 158.72h178.46272l37.76512 98.34496 48.7424-18.71872 33.75104 87.90016 45.54752-17.48992 80.77312 210.3296-344.14592 132.13696z m63.81568-443.392h-73.19552l35.06176 91.3408 63.77472-24.49408-25.64096-66.84672z m92.03712 94.04416l-60.94848 23.38816-97.52576 37.43744v-0.04096l-2.78528 1.06496 16.13824 41.984 161.21856-61.89056-16.09728-41.94304z m79.29856 70.4512l-252.35456 96.91136 45.4656 118.45632 252.35456-96.8704-45.4656-118.49728z"  horiz-adv-x="1105" />

    
    <glyph glyph-name="bold" unicode="&#58887;" d="M571.922963 416.237037c23.324444 0 41.490963 3.299556 54.46163 9.936593 20.366222 10.42963 30.568296 29.165037 30.568296 56.244148 0 27.268741-10.846815 45.624889-32.502519 55.10637-12.212148 5.30963-30.378667 7.964444-54.461629 7.964445h-98.607408v-129.251556h100.54163z m18.583704-192.549926c33.905778 0 58.064593 10.05037 72.51437 30.113185 9.064296 12.667259 13.615407 28.027259 13.615407 46.004148 0 30.302815-13.236148 50.934519-39.708444 61.895112-14.108444 5.878519-32.692148 8.798815-55.864889 8.798814h-109.719704v-146.811259h119.16326zM417.185185 592.592593h175.29363c47.786667 0 81.768296-14.563556 101.944889-43.728593 11.870815-17.21837 17.787259-37.091556 17.787259-59.619556 0-26.320593-7.319704-47.900444-21.959111-64.739555-7.585185-8.950519-18.545778-17.066667-32.805926-24.462222 20.935111-8.154074 36.598519-17.332148 46.952296-27.534223 18.318222-18.166519 27.496296-43.273481 27.496297-75.245037 0-26.889481-8.229926-51.2-24.727704-72.969481-24.613926-32.616296-63.791407-48.886519-117.494519-48.886519H417.185185V592.592593z"  horiz-adv-x="1137" />

    
    <glyph glyph-name="checkbox" unicode="&#58888;" d="M758.518519 194.37037v-18.962963H341.333333V592.592593h303.407408v-37.925926h-265.481482v-341.333334h341.333334v189.62963h37.925926v-208.592593zM477.866667 440.888889l72.059259-72.059259L731.97037 554.666667h79.644445l-265.481482-265.481482-18.962963 22.755556-128.948148 128.948148h79.644445z"  horiz-adv-x="1137" />

    
    <glyph glyph-name="attachment" unicode="&#58889;" d="M384.481882 217.509647a41.502118 41.502118 0 0 1 0-58.488471 40.96 40.96 0 0 1 58.187294 0l317.620706 319.307295 36.382118-36.562824-317.680941-319.367529-36.382118 36.562823 0.060235 0.060235 36.382118-36.562823c-36.141176-36.321882-94.750118-36.321882-130.891294 0a93.364706 93.364706 0 0 0-1.024 130.529882l203.655529 204.739765c10.059294 10.119529 26.322824 10.119529 36.382118 0s10.059294-26.443294 0-36.562824l-202.691765-203.655529z m186.729412 450.861177l36.382118-36.562824-327.198118-328.884706-36.382118 36.562824 327.198118 328.884706z m0 0c62.223059 62.584471 163.177412 62.584471 225.400471 0s62.223059-164.020706 0-226.605177l-36.382118 36.562824c42.164706 42.405647 42.164706 111.134118 0 153.479529a107.52 107.52 0 0 1-152.696471 0l-36.321882 36.562824zM549.345882 32.406588c-84.329412-84.751059-221.063529-84.751059-305.392941 0s-84.329412 222.208 0 306.959059l36.382118-36.562823c-64.271059-64.572235-64.271059-169.321412 0-233.893648s168.417882-64.572235 232.688941 0l36.321882-36.502588z m90.895059 127.939765a25.901176 25.901176 0 0 0 0-36.562824L549.345882 32.406588l-36.382117 36.562824 90.895059 91.376941a25.720471 25.720471 0 0 0 36.382117 0zM396.649412-34.153412c-58.488471 0-113.483294 22.889412-154.864941 64.451765a221.184 221.184 0 0 0-2.048 309.187765l1.927529 1.927529 0.120471 0.120471 2.16847 2.16847 325.150118 326.776471 2.108235 2.16847a160.888471 160.888471 0 0 0 112.64 45.658353c43.429647 0 84.148706-16.986353 114.808471-47.826823a163.84 163.84 0 0 0 2.108235-228.653177l-2.048-2.16847-319.789176-321.536-0.060236 0.060235a94.629647 94.629647 0 0 0-65.295059-25.961412 94.569412 94.569412 0 0 0-67.584 28.190118 96.737882 96.737882 0 0 0-1.084235 134.686118l203.715765 204.8a28.310588 28.310588 0 0 0 20.239059 8.432941h0.060235a28.912941 28.912941 0 0 0 20.299294-49.272471l-202.631529-203.655529a38.550588 38.550588 0 0 1 26.925176-65.475765 38.068706 38.068706 0 0 1 24.696471 9.095529l-0.361412 0.421648 2.891294 1.927529 317.620706 319.247059a106.014118 106.014118 0 0 1-0.240941 149.022117 103.966118 103.966118 0 0 1-74.209883 30.900706c-28.009412 0-54.332235-10.962824-74.149647-30.900706l-2.108235-2.16847-325.270588-326.957177a163.297882 163.297882 0 0 1 0.12047-229.556706c30.479059-30.659765 71.077647-47.525647 114.206118-47.525647s83.666824 16.865882 114.145882 47.525647l90.955295 91.437177a28.732235 28.732235 0 0 0 40.598588 0 28.912941 28.912941 0 0 0 0-40.839529l-90.895059-91.376942-0.240941-0.301176-1.92753-1.746824v0.060236a216.847059 216.847059 0 0 0-152.69647-62.34353zM243.952941 335.088941a215.100235 215.100235 0 0 1 2.108235-300.574117 210.944 210.944 0 0 1 150.588236-62.704942c55.898353 0 108.483765 21.504 148.48 60.596706l-32.165647 32.286118a165.767529 165.767529 0 0 0-116.254118-47.224471 166.249412 166.249412 0 0 0-118.543059 49.332706 169.381647 169.381647 0 0 0-2.108235 236.062118l-32.105412 32.225882z m273.227294-266.119529l32.165647-32.225883 88.786824 89.148236a23.130353 23.130353 0 0 1 0 32.346353 22.889412 22.889412 0 0 1-32.105412 0L517.180235 68.969412z m51.742118 393.33647c-0.060235 0-0.060235 0 0 0a22.648471 22.648471 0 0 1-16.082824-6.686117l-203.595294-204.739765a90.654118 90.654118 0 0 1 1.024-126.253176c16.926118-16.986353 39.393882-26.383059 63.307294-26.383059 22.829176 0 44.393412 8.553412 61.078589 24.154353l-32.105412 32.286117a43.791059 43.791059 0 0 0-60.175059 2.168471 44.574118 44.574118 0 0 0 0 62.704941l202.691765 203.655529a23.130353 23.130353 0 0 1 0 32.346353 22.467765 22.467765 0 0 1-16.143059 6.746353z m-122.036706-303.22447l32.105412-32.286118 313.344 315.030588-32.105412 32.286118-313.344-315.030588zM248.229647 339.486118l32.105412-32.225883 322.981647 324.608-32.105412 32.225883-322.981647-324.608z m516.216471 138.842353l32.105411-32.286118a157.876706 157.876706 0 0 1-2.108235 220.16 154.985412 154.985412 0 0 1-110.592 46.08 154.804706 154.804706 0 0 1-108.363294-43.971765l32.045176-32.286117a109.869176 109.869176 0 0 0 76.318118 30.539294c29.696 0 57.524706-11.565176 78.486588-32.64753a112.037647 112.037647 0 0 0 2.108236-155.587764z"  horiz-adv-x="1024" />

    
    <glyph glyph-name="centeralign" unicode="&#58890;" d="M341.333333 554.666667h455.111111v-37.925926H341.333333v37.925926z m0-151.703704h455.111111v-37.925926H341.333333v37.925926z m0-151.703704h455.111111v-37.925926H341.333333v37.925926z m75.851852 227.555556h303.407408v-37.925926H417.185185v37.925926z m0-151.703704h303.407408v-37.925926H417.185185v37.925926z"  horiz-adv-x="1137" />

    
    <glyph glyph-name="clean" unicode="&#58891;" d="M599.22963 213.333333h-170.666667l-128.948148 128.948148L606.814815 649.481481l227.555555-227.555555-204.8-208.592593h-30.34074z m11.377777 37.925926l53.096297 53.096297-174.45926 174.459259-136.533333-132.740741 94.814815-94.814815h163.081481z m-273.066666-75.851852h493.037037v-37.925926h-493.037037v37.925926z"  horiz-adv-x="1137" />

    
    <glyph glyph-name="codeblock" unicode="&#58892;" d="M813.176471 52.705882h30.117647V715.294118h-120.470589v-60.235294h60.235295v-542.117648h-60.235295v-60.235294h90.352942z m-602.352942 0H180.705882V715.294118h120.470589v-60.235294H240.941176v-542.117648h60.235295v-60.235294H210.823529zM120.470588 414.117647h60.235294v-60.235294H120.470588V414.117647z m722.82353 0h60.235294v-60.235294h-60.235294V414.117647z"  horiz-adv-x="1024" />

    
    <glyph glyph-name="color" unicode="&#58893;" d="M632.6272 343.36768l-66.88768 199.0656-71.10656-199.0656h137.99424zM534.528 609.28h67.50208l159.90784-450.56h-65.41312l-44.68736 134.9632h-174.2848L429.83424 158.72H368.64l165.888 450.56zM286.72 76.8h573.44v-122.88H286.72z"  horiz-adv-x="1105" />

    
    <glyph glyph-name="comment" unicode="&#58894;" d="M549.925926 440.888889v75.851852h37.925926v-75.851852h75.851852v-37.925926h-75.851852v-75.851852h-37.925926v75.851852h-75.851852v37.925926h75.851852zM303.407407 630.518519h530.962963v-417.185186H540.444444L417.185185 99.555556v113.777777h-113.777778V630.518519z m37.925926-37.925926v-341.333334h113.777778v-56.888889l56.888889 56.888889h284.444444V592.592593H341.333333z"  horiz-adv-x="1137" />

    
    <glyph glyph-name="formatpainter" unicode="&#58895;" d="M568.888889 365.037037v37.925926h227.555555V592.592593h-75.851851V630.518519H341.333333v-151.703704h379.25926V554.666667h37.925926v-113.777778h-227.555556v-75.851852h-37.925926v-227.555556h113.777778v227.555556h-37.925926z"  horiz-adv-x="1137" />

    
    <glyph glyph-name="fullalign" unicode="&#58896;" d="M341.333333 554.666667h455.111111v-37.925926H341.333333v37.925926z m0-151.703704h455.111111v-37.925926H341.333333v37.925926z m0-151.703704h455.111111v-37.925926H341.333333v37.925926z m0 227.555556h455.111111v-37.925926H341.333333v37.925926z m0-151.703704h455.111111v-37.925926H341.333333v37.925926z"  horiz-adv-x="1137" />

    
    <glyph glyph-name="image" unicode="&#58897;" d="M843.294118 263.529412V655.058824H180.705882v-277.082353L331.294118 534.588235l295.152941-307.2L752.941176 353.882353l90.352942-90.352941zM120.470588 715.294118h783.058824v-662.588236H120.470588V715.294118z m542.117647-240.941177c-36.141176 0-60.235294 24.094118-60.235294 60.235294s24.094118 60.235294 60.235294 60.235294 60.235294-24.094118 60.235294-60.235294-24.094118-60.235294-60.235294-60.235294z"  horiz-adv-x="1024" />

    
    <glyph glyph-name="italic" unicode="&#58898;" d="M636.131556 554.666667H682.666667V592.592593h-151.703704v-37.925926h48.279704l-77.558519-341.333334H455.111111v-37.925926h151.703704v37.925926h-48.279704l77.596445 341.333334z"  horiz-adv-x="1137" />

    
    <glyph glyph-name="leftAlign" unicode="&#58899;" d="M341.333333 554.666667h455.111111v-37.925926H341.333333v37.925926z m0-151.703704h455.111111v-37.925926H341.333333v37.925926z m0-151.703704h455.111111v-37.925926H341.333333v37.925926z m0 227.555556h303.407408v-37.925926H341.333333v37.925926z m0-151.703704h303.407408v-37.925926H341.333333v37.925926z"  horiz-adv-x="1137" />

    
    <glyph glyph-name="lefttab" unicode="&#58900;" d="M341.333333 497.777778l113.777778-113.777778-113.777778-113.777778v227.555556zM303.407407 592.592593h493.037037v-37.925926H303.407407V592.592593z m0-379.25926h493.037037v-37.925926H303.407407v37.925926z m227.555556 265.481482h227.555556v-37.925926h-227.555556v37.925926z m0-75.851852h227.555556v-37.925926h-227.555556v37.925926z m0-75.851852h227.555556v-37.925926h-227.555556v37.925926z"  horiz-adv-x="1137" />

    
    <glyph glyph-name="line" unicode="&#58901;" d="M120.470588 414.117647h783.058824v-60.235294H120.470588z"  horiz-adv-x="1024" />

    
    <glyph glyph-name="linespacing" unicode="&#58902;" d="M398.222222 289.185185v189.62963h75.851852L379.259259 592.592593l-94.814815-113.777778h75.851852v-189.62963h-75.851852l94.814815-113.777778 94.814815 113.777778h-75.851852z m151.703704 265.481482h303.407407v-37.925926h-303.407407V554.666667z m0-151.703704h303.407407v-37.925926h-303.407407v37.925926z m0-151.703704h303.407407v-37.925926h-303.407407v37.925926z m0 227.555556h303.407407v-37.925926h-303.407407v37.925926z m0-151.703704h303.407407v-37.925926h-303.407407v37.925926z"  horiz-adv-x="1137" />

    
    <glyph glyph-name="location" unicode="&#58903;" d="M512-7.529412C301.176471-7.529412 180.705882 40.658824 180.705882 118.964706c0 48.188235 66.258824 84.329412 162.635294 108.423529l24.094118-42.164706c-78.305882-12.047059-132.517647-36.141176-132.517647-66.258823 0-42.164706 132.517647-72.282353 277.082353-72.282353s277.082353 30.117647 277.082353 72.282353c0 30.117647-54.211765 54.211765-132.517647 66.258823l24.094118 42.164706c96.376471-24.094118 162.635294-60.235294 162.635294-108.423529 0-78.305882-126.494118-126.494118-331.294118-126.494118z m222.870588 385.505883C722.823529 365.929412 542.117647 155.105882 542.117647 155.105882c-6.023529-12.047059-18.070588-18.070588-24.094118-18.070588-6.023529 0-18.070588 6.023529-24.094117 18.070588 0 0-204.8 222.870588-210.82353 228.894118 0 6.023529-6.023529 12.047059-12.047058 18.070588-24.094118 42.164706-42.164706 96.376471-42.164706 150.588236C228.894118 709.270588 355.388235 835.764706 512 835.764706c78.305882 0 150.588235-30.117647 204.8-84.329412s84.329412-126.494118 84.329412-198.77647c0-54.211765-18.070588-108.423529-48.188236-156.611765-6.023529-12.047059-18.070588-18.070588-18.070588-18.070588zM512 781.552941c-60.235294 0-120.470588-24.094118-162.635294-66.258823S277.082353 612.894118 277.082353 546.635294c0-42.164706 12.047059-78.305882 36.141176-114.447059 6.023529-12.047059 30.117647-36.141176 30.117647-36.141176l174.682353-192.752941 162.635295 192.752941s6.023529 12.047059 18.070588 24.094117c24.094118 36.141176 48.188235 78.305882 48.188235 126.494118 0 132.517647-108.423529 234.917647-234.917647 234.917647z m0-343.341176c-42.164706 0-78.305882 18.070588-96.376471 54.211764s-18.070588 78.305882 0 114.447059 60.235294 54.211765 96.376471 54.211765c42.164706 0 78.305882-18.070588 96.376471-54.211765 18.070588-36.141176 18.070588-78.305882 0-114.447059-18.070588-30.117647-54.211765-54.211765-96.376471-54.211764z m0 168.658823c-18.070588 0-42.164706-12.047059-48.188235-24.094117s-12.047059-42.164706 0-60.235295 30.117647-30.117647 48.188235-30.117647c30.117647 0 54.211765 24.094118 54.211765 54.211765s-24.094118 60.235294-54.211765 60.235294z"  horiz-adv-x="1024" />

    
    <glyph glyph-name="media" unicode="&#58904;" d="M692.705882 384l-240.941176-150.588235V534.588235zM843.294118 52.705882H240.941176c-48.188235 0-90.352941 42.164706-90.352941 90.352942v481.882352C150.588235 673.129412 192.752941 715.294118 240.941176 715.294118h602.352942c48.188235 0 90.352941-42.164706 90.352941-90.352942v-481.882352c0-48.188235-42.164706-90.352941-90.352941-90.352942zM240.941176 655.058824c-18.070588 0-30.117647-12.047059-30.117647-30.117648v-481.882352c0-18.070588 12.047059-30.117647 30.117647-30.117648h602.352942c18.070588 0 30.117647 12.047059 30.117647 30.117648v481.882352c0 18.070588-12.047059 30.117647-30.117647 30.117648H240.941176z"  horiz-adv-x="1024" />

    
    <glyph glyph-name="link" unicode="&#58905;" d="M366.411294 307.983059l72.884706-72.884706a154.081882 154.081882 0 0 0-12.950588-0.542118H279.552a159.021176 159.021176 0 1 0 0 318.102589h146.853647a159.081412 159.081412 0 0 0 149.925647-212.329412l-65.054118 65.054117A85.714824 85.714824 0 0 1 426.465882 479.232H279.552a85.654588 85.654588 0 0 1 0-171.309176h86.859294v0.060235z m291.177412 171.248941l-72.884706 72.884706c4.276706 0.361412 8.613647 0.542118 12.950588 0.542118h146.853647a159.021176 159.021176 0 1 0-0.060235-318.162824H597.654588a159.081412 159.081412 0 0 0-149.925647 212.329412l65.054118-65.054118c5.782588-41.682824 41.562353-73.848471 84.811294-73.84847h146.853647a85.654588 85.654588 0 0 1 0 171.309176h-86.859294z"  horiz-adv-x="1024" />

    
    <glyph glyph-name="ordered" unicode="&#58906;" d="M315.922963 569.837037v18.962963h18.962963c3.792593 0 11.377778 3.792593 11.377778 7.585185 3.792593 3.792593 3.792593 3.792593 3.792592 11.377778v3.792593h22.755556V478.814815h-26.548148V569.837037h-30.340741z m0-216.177778c3.792593 7.585185 11.377778 18.962963 26.548148 26.548148 11.377778 7.585185 18.962963 15.17037 22.755556 18.962963 3.792593 7.585185 7.585185 11.377778 7.585185 18.962963 0 3.792593 0 11.377778-3.792593 15.170371-3.792593 3.792593-7.585185 3.792593-11.377778 3.792592-11.377778 0-15.17037-3.792593-18.962962-7.585185 0-3.792593-3.792593-7.585185-3.792593-15.17037h-22.755556c0 11.377778 3.792593 18.962963 7.585186 26.548148 3.792593 11.377778 15.17037 18.962963 34.133333 18.962963 15.17037 0 26.548148-3.792593 34.133333-11.377778s11.377778-18.962963 11.377778-30.340741c0-11.377778-3.792593-18.962963-7.585185-26.548148-3.792593-7.585185-11.377778-11.377778-18.962963-18.962963l-11.377778-7.585185c-7.585185-3.792593-11.377778-7.585185-11.377778-7.585185l-7.585185-7.585185h56.888889v-22.755556h-91.022222c0 7.585185 3.792593 15.17037 7.585185 26.548148z m18.962963-140.325926c0-3.792593 0-11.377778 3.792593-15.17037 0-3.792593 7.585185-7.585185 15.17037-7.585185 3.792593 0 11.377778 0 15.17037 3.792592s7.585185 7.585185 7.585185 15.170371-3.792593 15.17037-11.377777 18.962963c-7.585185 3.792593-11.377778 3.792593-22.755556 3.792592V251.259259c7.585185 0 15.17037 0 18.962963 3.792593 7.585185 0 7.585185 7.585185 7.585185 15.17037 0 3.792593 0 7.585185-3.792592 11.377778s-7.585185 7.585185-11.377778 7.585185c-7.585185 0-11.377778-3.792593-15.17037-7.585185s-3.792593-7.585185-3.792593-15.17037h-22.755556c0 7.585185 0 11.377778 3.792593 18.962963 3.792593 3.792593 3.792593 11.377778 11.377778 15.17037l7.585185 7.585185c3.792593 3.792593 11.377778 0 18.962963 0 11.377778 0 22.755556-3.792593 30.340741-7.585185s11.377778-15.17037 11.377777-26.548148c0-7.585185-3.792593-15.17037-7.585185-18.962963 0-7.585185-3.792593-7.585185-7.585185-11.377778 3.792593 0 7.585185-3.792593 11.377778-7.585185 7.585185-7.585185 11.377778-15.17037 11.377778-26.548148 0-11.377778-3.792593-22.755556-11.377778-30.340741s-18.962963-11.377778-34.133334-11.377778c-18.962963 0-30.340741 7.585185-37.925925 18.962963-7.585185 7.585185-11.377778 18.962963-11.377778 26.548148h26.548148z m159.288889 341.333334h303.407407v-37.925926h-303.407407V554.666667z m0-151.703704h303.407407v-37.925926h-303.407407v37.925926z m0-151.703704h303.407407v-37.925926h-303.407407v37.925926z"  horiz-adv-x="1137" />

    
    <glyph glyph-name="redo" unicode="&#58907;" d="M611.783111 326.656L549.622519 251.259259h284.444444l-65.498074 265.481482-59.922963-72.666074c-35.422815 28.48237-108.278519 68.342519-238.667852 68.342518-202.827852 0-280.651852-206.01363-280.651852-206.013629s116.318815 132.778667 246.215111 132.778666c97.204148 0.037926 153.865481-74.827852 176.241778-112.526222z"  horiz-adv-x="1137" />

    
    <glyph glyph-name="rightalign" unicode="&#58908;" d="M341.333333 554.666667h455.111111v-37.925926H341.333333v37.925926z m0-151.703704h455.111111v-37.925926H341.333333v37.925926z m0-151.703704h455.111111v-37.925926H341.333333v37.925926z m151.703704 227.555556h303.407407v-37.925926H493.037037v37.925926z m0-151.703704h303.407407v-37.925926H493.037037v37.925926z"  horiz-adv-x="1137" />

    
    <glyph glyph-name="righttab" unicode="&#58909;" d="M455.111111 262.637037l-121.362963 121.362963 121.362963 121.362963v-242.725926zM303.407407 592.592593h493.037037v-37.925926H303.407407V592.592593z m0-379.25926h493.037037v-37.925926H303.407407v37.925926z m227.555556 113.777778h227.555556v-37.925926h-227.555556v37.925926z m0 75.851852h227.555556v-37.925926h-227.555556v37.925926z m0 75.851852h227.555556v-37.925926h-227.555556v37.925926z"  horiz-adv-x="1137" />

    
    <glyph glyph-name="replacement" unicode="&#58910;" d="M455.224889 591.416889l-75.927704-75.358815h75.927704V591.416889zM493.302519 592.592593v-114.460445h-114.005334V175.407407h219.022222c9.860741-15.132444 23.021037-29.88563 35.19526-37.925926H341.333333V531.607704L440.661333 630.518519H758.518519v-240.677926a106.30637 106.30637 0 0 1-37.925926 9.709037V592.592593h-227.290074z m-58.026667-151.703704h225.431704v-37.925926h-225.431704v37.925926z m0-75.927704L569.950815 365.037037v-37.925926l-134.674963-0.075852v37.925926z m399.511704-113.929481a113.398519 113.398519 0 0 0-21.541926-66.673778l47.862518-47.862519-26.093037-26.093037-47.900444 47.900445a114.005333 114.005333 0 1 0 47.672889 92.728889zM720.592593 175.407407a75.851852 75.851852 0 1 1 0.037926 151.665778A75.851852 75.851852 0 0 1 720.592593 175.407407z"  horiz-adv-x="1137" />

    
    <glyph glyph-name="strike" unicode="&#58911;" d="M442.140444 402.962963H322.37037v-37.925926h230.703408l29.582222-6.485333c29.999407-6.637037 52.03437-14.449778 66.104889-23.438223 13.918815-9.140148 20.859259-24.500148 20.859259-46.042074 0-28.709926-16.497778-48.658963-49.455407-59.809185a176.96237 176.96237 0 0 0-56.661334-8.609185c-46.307556 0-78.620444 13.12237-96.938666 39.329185-9.633185 13.994667-15.094519 32.237037-16.384 54.651259H398.222222c-0.568889-42.742519 13.50163-76.572444 42.211556-101.527703 28.747852-25.144889 68.456296-37.69837 119.201185-37.698371 43.501037 0 81.73037 9.443556 114.574222 28.292741 32.881778 18.849185 49.303704 50.176 49.303704 93.980445 0 27.572148-7.964444 50.024296-23.893333 67.356444H815.407407v37.925926h-193.34637l-1.327407 0.303407-57.230223 12.66726c-38.494815 8.609185-63.222519 15.777185-74.145185 21.541926-16.687407 8.950519-24.993185 23.134815-24.993185 42.552888 0 17.59763 7.130074 33.033481 21.390222 46.307556s37.69837 19.949037 70.276741 19.949037c40.353185 0 68.987259-10.315852 85.82637-30.985481 9.064296-11.301926 15.018667-27.572148 17.78726-48.734815h51.958518c0 43.994074-14.942815 76.003556-44.86637 96.028444C636.814222 582.580148 600.443259 592.592593 557.700741 592.592593c-46.497185 0-82.413037-11.415704-107.785482-34.209186s-38.07763-51.958519-38.077629-87.533037c0-28.975407 10.088296-51.617185 30.302814-67.887407z"  horiz-adv-x="1137" />

    
    <glyph glyph-name="table" unicode="&#58912;" d="M240.941176 414.117647h240.941177V655.058824H240.941176v-240.941177z m0-60.235294v-240.941177h240.941177V353.882353H240.941176z m542.117648 60.235294V655.058824H542.117647v-240.941177h240.941177z m0-60.235294H542.117647v-240.941177h240.941177V353.882353zM180.705882 715.294118h662.588236v-662.588236H180.705882V715.294118z"  horiz-adv-x="1024" />

    
    <glyph glyph-name="translate" unicode="&#58913;" d="M613.262222 432.545185a378.728296 378.728296 0 0 0-75.472592-34.702222c-26.794667-8.969481-42.723556-13.463704-47.786667-13.463704-1.517037 0-2.275556 0.512-2.275556 1.517037s2.142815 2.408296 6.447408 4.171852c38.437926 16.933926 70.788741 36.788148 97.09037 59.543704a185.628444 185.628444 0 0 0-50.441481 73.576296h-3.034074c-5.063111 0-9.614222-1.384296-13.653334-4.171852l-9.86074 17.825185c6.068148-0.758519 12.382815-1.137778 18.962963-1.137777h113.777777c6.826667 9.614222 10.865778 15.17037 12.136297 16.687407a6.106074 6.106074 0 0 0 4.93037 2.275556c2.787556 0 12.193185-4.304593 28.254815-12.894815 16.06163-8.590222 24.082963-14.734222 24.082963-18.394074s-2.654815-6.011259-7.964445-7.016297c-2.787556-0.512-5.632-2.142815-8.533333-4.93037s-9.234963-9.91763-18.962963-21.428148-20.80237-22.565926-33.185185-33.185185c27.553185-9.614222 61.307259-16.820148 101.262222-21.617778 5.063111-0.512 7.585185-1.270519 7.585185-2.275556s-2.029037-2.522074-6.068148-4.551111c-12.382815-5.82163-22.622815-17.692444-30.72-35.65037-1.763556-4.039111-4.039111-6.068148-6.826667-6.068148-3.792593 0-16.877037 4.551111-39.253333 13.653333a315.657481 315.657481 0 0 0-60.491852 32.237037z m0.379259 38.305185c15.416889 16.687407 27.439407 34.133333 36.02963 52.337778H549.925926c14.923852-20.726519 36.16237-38.172444 63.715555-52.337778z m-182.423703 78.885926c10.372741 0 21.807407-1.706667 34.322963-5.12 12.515556-3.413333 22.129778-8.590222 28.823703-15.549629 6.693926-6.959407 10.05037-14.791111 10.050371-23.514074s-2.711704-15.872-8.154074-21.428149-11.757037-8.343704-18.962963-8.343703-12.837926 2.029037-16.877037 6.068148c-4.039111 4.039111-6.068148 9.348741-6.068148 15.928889 0 12.894815-1.573926 22.698667-4.740741 29.392592a35.346963 35.346963 0 0 1-13.274074 15.36c-5.688889 3.546074-8.533333 5.632-8.533334 6.257778 0 0.625778 1.137778 0.948148 3.413334 0.948148z m159.288889-200.248889h-43.235556c-5.063111 0-9.614222-1.384296-13.653333-4.171851l-9.860741 17.825185c6.068148-0.758519 12.382815-1.137778 18.962963-1.137778h47.786667v13.274074c0 12.648296-0.246519 23.893333-0.758519 33.754074 12.894815-0.758519 24.405333-2.029037 34.512593-3.792592 10.107259-1.763556 15.985778-3.166815 17.635555-4.171852 1.649778-1.005037 2.465185-2.465185 2.465185-4.361482s-2.408296-4.114963-7.205925-6.637037v-28.065185h16.687407c7.073185 11.377778 11.757037 18.526815 14.032593 21.428148 2.275556 2.901333 4.171852 4.361481 5.688888 4.361482 2.522074 0 10.24-5.063111 23.134815-15.170371 12.894815-10.107259 19.342222-16.497778 19.342222-19.152592s-2.654815-3.982222-7.964444-3.982223H637.155556v-45.511111h34.891851c7.338667 12.382815 12.458667 20.536889 15.36 24.462223 2.901333 3.925333 5.252741 5.878519 7.016297 5.878518 2.787556 0 11.567407-5.688889 26.358518-17.066667 14.791111-11.377778 22.186667-18.526815 22.186667-21.428148s-2.522074-4.361481-7.585185-4.361481H637.155556v-28.065185c0-8.343704 0.246519-17.199407 0.758518-26.548149l0.379259-12.894814c0-1.763556-0.32237-3.034074-0.948148-3.792593s-3.602963-2.085926-8.912592-3.982222c-5.30963-1.896296-11.889778-3.602963-19.721482-5.12-7.831704-1.517037-13.406815-2.275556-16.687407-2.275556-1.763556 0-2.654815 1.896296-2.654815 5.688889l0.758518 14.791111c0.246519 10.107259 0.379259 21.485037 0.37926 34.133334v28.065185h-50.820741c-5.063111 0-9.614222-1.384296-13.653333-4.171852l-8.343704 14.411852c-25.78963-35.13837-42.989037-60.055704-51.579259-74.714074-1.517037-2.522074-3.166815-3.792593-4.930371-3.792593s-4.551111 2.787556-8.343703 8.343704c-3.792593 5.556148-9.045333 12.951704-15.73926 22.186666-6.693926 9.234963-10.05037 14.601481-10.05037 16.118519s1.517037 3.413333 4.551111 5.688889c3.034074 2.275556 5.44237 4.551111 7.205926 6.826667 1.763556 2.275556 2.654815 5.44237 2.654815 9.481481v126.672593H411.496296c-5.063111 0-9.614222-1.384296-13.653333-4.171852l-9.860741 17.825185c6.068148-0.758519 12.382815-1.137778 18.962963-1.137778h30.340741c5.063111 8.855704 8.533333 14.411852 10.42963 16.687408s3.735704 3.413333 5.499259 3.413333c2.787556 0 11.055407-4.039111 24.841481-12.136296 13.786074-8.097185 20.66963-13.975704 20.66963-17.635556 0-3.659852-5.063111-7.149037-15.17037-10.42963v-116.053333a2893.12237 2893.12237 0 0 0 40.391111 27.306667c6.200889 4.039111 9.671111 6.068148 10.429629 6.068148 0.758519 0 1.137778-0.379259 1.137778-1.137778 0-1.763556-5.176889-9.234963-15.54963-22.376296 4.304593-0.512 9.348741-0.758519 15.170371-0.758519h55.371852v45.511111z"  horiz-adv-x="1137" />

    
    <glyph glyph-name="undo" unicode="&#58914;" d="M489.244444 327.111111l60.681482-75.851852H265.481481l64.474075 265.481482 60.681481-72.05926c34.133333 30.340741 109.985185 68.266667 238.933333 68.266667 201.007407 0 280.651852-204.8 280.651852-204.8S792.651852 440.888889 663.703704 440.888889c-98.607407 0-155.496296-75.851852-174.45926-113.777778z"  horiz-adv-x="1137" />

    
    <glyph glyph-name="underline" unicode="&#58915;" d="M469.560889 592.592593v-228.352c0-26.81363 5.195852-49.114074 15.54963-66.901334 15.397926-26.81363 41.301333-40.239407 77.786074-40.239407 43.728593 0 73.462519 14.487704 89.201777 43.501037 8.457481 15.777185 12.705185 36.977778 12.705186 63.639704V592.592593h52.375703v-207.492741c0-45.435259-6.295704-80.402963-18.925037-104.865185-23.210667-44.600889-66.939259-66.901333-131.223703-66.901334s-107.937185 22.300444-130.920297 66.901334c-12.629333 24.462222-18.925037 59.429926-18.925037 104.865185V592.592593h52.375704zM360.296296 137.481481h417.185185v-37.925925h-417.185185v37.925925z"  horiz-adv-x="1137" />

    


  </font>
</defs>
</svg>
